<svg width="14" height="16" viewBox="0 0 14 16" fill="none" xmlns="http://www.w3.org/2000/svg">
<path d="M4.77 2.32H8.91V1.17C8.91 0.79625 9.1975 0.48 9.6 0.48C9.97375 0.48 10.29 0.79625 10.29 1.17V2.32H11.44C12.4463 2.32 13.28 3.15375 13.28 4.16V13.36C13.28 14.395 12.4463 15.2 11.44 15.2H2.24C1.205 15.2 0.400002 14.395 0.400002 13.36V4.16C0.400002 3.15375 1.205 2.32 2.24 2.32H3.39V1.17C3.39 0.79625 3.6775 0.48 4.08 0.48C4.45375 0.48 4.77 0.79625 4.77 1.17V2.32ZM1.78 13.36C1.78 13.6188 1.98125 13.82 2.24 13.82H11.44C11.67 13.82 11.9 13.6188 11.9 13.36V6H1.78V13.36Z" fill="#CECECE"/>
</svg>
