<svg width="15" height="16" viewBox="0 0 15 16" fill="none" xmlns="http://www.w3.org/2000/svg">
  <path d="M7.5 0.875C11.6309 0.875 15 4.24414 15 8.375C15 12.5352 11.6309 15.875 7.5 15.875C3.33984 15.875 0 12.5352 0 8.375C0 4.24414 3.33984 0.875 7.5 0.875ZM10.8691 5.94336C10.5469 5.62109 10.0488 5.62109 9.72656 5.94336L6.5625 9.10742L5.24414 7.81836C4.92188 7.49609 4.42383 7.49609 4.10156 7.81836C3.7793 8.14062 3.7793 8.63867 4.10156 8.96094L5.97656 10.8359C6.29883 11.1582 6.79688 11.1582 7.11914 10.8359L10.8691 7.08594C11.1914 6.76367 11.1914 6.26562 10.8691 5.94336Z" fill="#F28482"/>
</svg>
