<svg width="7" height="7" viewBox="0 0 7 7" fill="none" xmlns="http://www.w3.org/2000/svg">
<path d="M6.50922 5.82031C6.76313 6.05469 6.76313 6.46484 6.50922 6.69922C6.39204 6.81641 6.23579 6.875 6.07954 6.875C5.90376 6.875 5.74751 6.81641 5.63032 6.69922L3.57954 4.64844L1.50922 6.69922C1.39204 6.81641 1.23579 6.875 1.07954 6.875C0.903755 6.875 0.747505 6.81641 0.630318 6.69922C0.376411 6.46484 0.376411 6.05469 0.630318 5.82031L2.6811 3.75L0.630318 1.69922C0.376411 1.46484 0.376411 1.05469 0.630318 0.820312C0.864693 0.566406 1.27485 0.566406 1.50922 0.820312L3.57954 2.87109L5.63032 0.820312C5.86469 0.566406 6.27485 0.566406 6.50922 0.820312C6.76313 1.05469 6.76313 1.46484 6.50922 1.69922L4.45844 3.76953L6.50922 5.82031Z" fill="#F28482"/>
</svg>
