<svg width="7" height="6" viewBox="0 0 7 6" fill="none" xmlns="http://www.w3.org/2000/svg">
<path d="M0.350211 0.720002L6.65039 0.720002C6.71418 0.720192 6.7767 0.736977 6.83123 0.768548C6.88576 0.800118 6.93024 0.84528 6.95987 0.899172C6.9895 0.953064 7.00316 1.01365 6.99939 1.07439C6.99561 1.13514 6.97454 1.19376 6.93845 1.24394L3.78836 5.58501C3.6578 5.765 3.3435 5.765 3.21259 5.58501L0.0625026 1.24394C0.0260402 1.19387 0.00465789 1.13522 0.000678643 1.07437C-0.00330061 1.01352 0.0102755 0.952791 0.0399318 0.898785C0.0695882 0.844779 0.114191 0.799559 0.168893 0.768039C0.223596 0.73652 0.286306 0.719906 0.350211 0.720002Z" fill="black"/>
</svg>
