<svg width="15" height="14" viewBox="0 0 15 14" fill="none" xmlns="http://www.w3.org/2000/svg">
<path d="M12.25 0.532501C13.2754 0.532501 14.125 1.38211 14.125 2.4075V9.23367C14.125 9.96609 13.8027 10.6692 13.2754 11.1966L11.6348 12.8372C11.1074 13.3645 10.4043 13.6575 9.67188 13.6575H2.875C1.82031 13.6575 0.970703 12.8372 1 11.7825V2.4075C1 1.38211 1.82031 0.532501 2.875 0.532501H12.25ZM2.52344 12.1341C2.58203 12.1927 2.69922 12.2513 2.875 12.2513H8.5V9.67313C8.5 8.79422 9.23242 8.0325 10.1406 8.0325H12.7188V2.4075C12.7188 2.17313 12.4844 1.93875 12.25 1.93875H2.875C2.61133 1.93875 2.40625 2.17313 2.40625 2.4368V11.7825C2.40625 11.9583 2.46484 12.0755 2.52344 12.1341ZM10.668 11.8411L12.2793 10.2298C12.5137 9.99539 12.6309 9.73172 12.6895 9.43875H10.1406C9.99414 9.43875 9.90625 9.55594 9.90625 9.67313V12.2513C10.1699 12.1927 10.4336 12.0755 10.668 11.8411Z" fill="#F28482"/>
</svg>
