<svg width="13" height="11" viewBox="0 0 13 11" fill="none" xmlns="http://www.w3.org/2000/svg">
<path d="M11.9856 5.04034C12.2668 5.15753 12.4309 5.43878 12.4543 5.72003C12.4543 6.02472 12.2668 6.30597 11.9856 6.42316L1.48557 10.9232C1.39182 10.97 1.29807 10.9935 1.20432 10.9935C0.993378 10.9935 0.78244 10.8997 0.641815 10.7357C0.430878 10.5247 0.384003 10.1732 0.524628 9.89191L2.70432 5.72003L0.524628 1.57159C0.384003 1.29034 0.430878 0.938782 0.641815 0.704407C0.78244 0.540344 0.993378 0.470032 1.20432 0.470032C1.29807 0.470032 1.39182 0.493469 1.48557 0.540344L11.9856 5.04034ZM2.00119 1.99347L3.66525 5.15753H9.43088L2.00119 1.99347ZM3.66525 6.28253L2.00119 9.47003L9.43088 6.28253H3.66525Z" fill="#FF6250"/>
</svg>
