<svg width="10" height="11" viewBox="0 0 10 11" fill="none" xmlns="http://www.w3.org/2000/svg">
<path d="M3.36398 0.374298C3.46164 0.159454 3.67648 0.0227356 3.91086 0.0227356H6.27414C6.50851 0.0227356 6.72336 0.159454 6.82101 0.374298L6.97726 0.647736H8.85226C9.1843 0.647736 9.47726 0.940704 9.47726 1.27274C9.47726 1.6243 9.1843 1.89774 8.85226 1.89774H1.35226C1.0007 1.89774 0.727264 1.6243 0.727264 1.27274C0.727264 0.940704 1.0007 0.647736 1.35226 0.647736H3.22726L3.36398 0.374298ZM1.33273 2.52274H8.85226V8.77274C8.85226 9.47586 8.28586 10.0227 7.60226 10.0227H2.58273C1.89914 10.0227 1.33273 9.47586 1.33273 8.77274V2.52274ZM2.89523 4.08524V8.46024C2.89523 8.63602 3.05148 8.77274 3.20773 8.77274C3.38351 8.77274 3.52023 8.63602 3.52023 8.46024V4.08524C3.52023 3.92899 3.38351 3.77274 3.20773 3.77274C3.05148 3.77274 2.89523 3.92899 2.89523 4.08524ZM4.77023 4.08524V8.46024C4.77023 8.63602 4.92648 8.77274 5.08273 8.77274C5.25851 8.77274 5.41476 8.63602 5.41476 8.46024V4.08524C5.41476 3.92899 5.25851 3.77274 5.08273 3.77274C4.92648 3.77274 4.77023 3.92899 4.77023 4.08524ZM6.66476 4.08524V8.46024C6.66476 8.63602 6.80148 8.77274 6.97726 8.77274C7.13351 8.77274 7.28976 8.63602 7.28976 8.46024V4.08524C7.28976 3.92899 7.13351 3.77274 6.97726 3.77274C6.80148 3.77274 6.66476 3.92899 6.66476 4.08524Z" fill="#F28482"/>
</svg>
