<svg width="14" height="16" viewBox="0 0 14 16" fill="none" xmlns="http://www.w3.org/2000/svg">
<path d="M7.96875 9.50125C10.8105 9.50125 13.125 11.8157 13.125 14.6575C13.125 15.1848 12.6855 15.595 12.1875 15.595H0.9375C0.410156 15.595 0 15.1848 0 14.6575C0 11.8157 2.28516 9.50125 5.15625 9.50125H7.96875ZM1.40625 14.1888H11.6895C11.4551 12.343 9.87305 10.9075 7.96875 10.9075H5.15625C3.22266 10.9075 1.64062 12.343 1.40625 14.1888ZM6.5625 8.095C4.48242 8.095 2.8125 6.42508 2.8125 4.345C2.8125 2.29422 4.48242 0.595001 6.5625 0.595001C8.61328 0.595001 10.3125 2.29422 10.3125 4.345C10.3125 6.42508 8.61328 8.095 6.5625 8.095ZM6.5625 2.00125C5.24414 2.00125 4.21875 3.05594 4.21875 4.345C4.21875 5.66336 5.24414 6.68875 6.5625 6.68875C7.85156 6.68875 8.90625 5.66336 8.90625 4.345C8.90625 3.05594 7.85156 2.00125 6.5625 2.00125Z" fill="#F28482"/>
</svg>
